# xmcd CD database file
#
# Track frame offsets:
#	150
#	16912
#	34307
#	53117
#	70791
#	90692
#	106615
#	123080
#	136574
#	151071
#	164281
#	179351
#	190571
#	205901
#	223782
#	238575
#	258905
#
# Disc length: 3694 seconds
#
# Revision: 0
# Processed by: cddbd v1.5.2PL0 Copyright (c) Steve Scherf et al.
# Submitted via: CDex 1.77
#
DISCID=d50e6c11
DTITLE=Ed Frank Quartet feat. Clarence Ford - Ed Frank Quartet feat. Clarence Ford
DYEAR=1992
DGENRE=Jazz
TTITLE0=Feels so good
TTITLE1=Stardust
TTITLE2=Moonglow
TTITLE3=Then I'll be happy
TTITLE4=A fool such as I
TTITLE5=Rambunctious
TTITLE6=Valley of Tears/Blueberry Hill
TTITLE7=Blue Moon
TTITLE8=Night train
TTITLE9=Blue eyes crying in the rain
TTITLE10=You are my sunshine
TTITLE11=I hear you knocking/I'm in love again
TTITLE12=Siboney
TTITLE13=Honky Tonk
TTITLE14=Do you know what it means
TTITLE15=Sea of Love
TTITLE16=High Heel Sneakers
EXTD=YEAR: 1992
EXTT0=
EXTT1=
EXTT2=
EXTT3=
EXTT4=
EXTT5=
EXTT6=
EXTT7=
EXTT8=
EXTT9=
EXTT10=
EXTT11=
EXTT12=
EXTT13=
EXTT14=
EXTT15=
EXTT16=
PLAYORDER=
